<svg width="30" height="30" viewBox="0 0 30 30" fill="none" xmlns="http://www.w3.org/2000/svg">
    <g clip-path="url(#clip0_49_5660)">
        <g clip-path="url(#clip1_49_5660)">
            <rect y="-0.00292969" width="30" height="30" rx="15" fill="#FFBB4B" />
            <path fill-rule="evenodd" clip-rule="evenodd"
                d="M18.7114 9.62558C19.1927 10.0185 19.2644 10.7272 18.8715 11.2085L10.3001 21.7085C10.0864 21.9702 9.76644 22.1221 9.42858 22.1221C9.09071 22.1221 8.77074 21.9702 8.55708 21.7085L5.12851 17.5085C4.7356 17.0272 4.80727 16.3185 5.28858 15.9256C5.76989 15.5327 6.47859 15.6043 6.8715 16.0857L9.42858 19.2181L17.1285 9.78565C17.5214 9.30434 18.2301 9.23267 18.7114 9.62558ZM24.7114 9.62559C25.1927 10.0185 25.2644 10.7272 24.8715 11.2085L16.2998 21.7085C16.0729 21.9865 15.7269 22.1396 15.3685 22.1205C15.0101 22.1014 14.6824 21.9125 14.4862 21.612L14.0579 20.9557C13.7183 20.4354 13.8648 19.7383 14.3851 19.3987C14.6909 19.1992 15.0577 19.1675 15.3771 19.2808L23.1285 9.78564C23.5214 9.30433 24.2301 9.23268 24.7114 9.62559Z"
                fill="black" />
        </g>
        <rect x="-1" y="-1.00293" width="32" height="32" rx="16" stroke="black" stroke-width="2" />
    </g>
    <defs>
        <clipPath id="clip0_49_5660">
            <rect width="30" height="30" rx="15" fill="white" />
        </clipPath>
        <clipPath id="clip1_49_5660">
            <rect y="-0.00292969" width="30" height="30" rx="15" fill="white" />
        </clipPath>
    </defs>
</svg>
