<svg width="33" height="32" viewBox="0 0 33 32" fill="none" xmlns="http://www.w3.org/2000/svg">
    <rect x="0.199997" width="32" height="32" rx="16" fill="white" />
    <g clip-path="url(#clip0_49_5984)">
        <path
            d="M9.482 16.064C9.054 16.392 8.762 16.673 8.607 16.915C8.452 17.155 8.358 17.413 8.328 17.683H11.007V16.935H9.613C9.694 16.854 9.765 16.784 9.825 16.734C9.887 16.684 10.007 16.592 10.186 16.464C10.489 16.246 10.697 16.044 10.812 15.86C10.928 15.674 10.985 15.485 10.985 15.282C10.9877 15.1 10.9351 14.9214 10.834 14.77C10.7348 14.6169 10.591 14.4979 10.422 14.429C10.248 14.353 10.003 14.318 9.689 14.318C9.389 14.318 9.152 14.356 8.983 14.432C8.82022 14.5026 8.68231 14.6203 8.587 14.77C8.493 14.913 8.428 15.116 8.393 15.374L9.287 15.45C9.312 15.262 9.361 15.133 9.434 15.056C9.4706 15.0198 9.51426 14.9916 9.56226 14.973C9.61026 14.9544 9.66157 14.9459 9.713 14.948C9.823 14.948 9.913 14.983 9.985 15.056C10.0201 15.089 10.0478 15.1291 10.0664 15.1735C10.085 15.218 10.0941 15.2658 10.093 15.314C10.0868 15.4214 10.0493 15.5247 9.985 15.611C9.911 15.713 9.744 15.865 9.482 16.064ZM9.537 22.45C9.43288 22.4533 9.33163 22.4156 9.255 22.345C9.181 22.275 9.127 22.15 9.093 21.967L8.2 22.085C8.259 22.289 8.342 22.457 8.451 22.591C8.56 22.724 8.699 22.826 8.868 22.897C9.036 22.966 9.267 23 9.56 23C9.86 23 10.101 22.953 10.285 22.86C10.4633 22.7709 10.611 22.6306 10.709 22.457C10.807 22.282 10.855 22.103 10.855 21.913C10.8587 21.7767 10.8284 21.6417 10.767 21.52C10.7079 21.413 10.6221 21.323 10.518 21.259C10.4288 21.2081 10.3323 21.171 10.232 21.149C10.3698 21.0791 10.4882 20.9764 10.577 20.85C10.6525 20.7367 10.6919 20.6032 10.69 20.467C10.6918 20.3528 10.6675 20.2397 10.6188 20.1363C10.57 20.033 10.4983 19.9422 10.409 19.871C10.222 19.712 9.919 19.633 9.5 19.633C9.135 19.633 8.852 19.705 8.653 19.852C8.453 19.995 8.319 20.205 8.249 20.478L9.093 20.629C9.116 20.467 9.16 20.355 9.226 20.291C9.292 20.227 9.377 20.193 9.483 20.193C9.52708 20.191 9.57112 20.1978 9.61251 20.2131C9.65391 20.2284 9.69182 20.2518 9.724 20.282C9.783 20.342 9.811 20.421 9.811 20.52C9.811 20.624 9.773 20.713 9.694 20.79C9.615 20.867 9.517 20.902 9.401 20.902C9.36213 20.9008 9.32339 20.8972 9.285 20.891L9.24 21.54C9.33348 21.5088 9.43063 21.49 9.529 21.484C9.661 21.484 9.766 21.525 9.842 21.61C9.919 21.692 9.957 21.809 9.957 21.962C9.957 22.108 9.917 22.228 9.838 22.316C9.80047 22.3587 9.75414 22.3928 9.70218 22.416C9.65022 22.4391 9.59387 22.4507 9.537 22.45ZM10.485 12.367V9H9.746C9.65566 9.20174 9.52098 9.38051 9.352 9.523C9.184 9.665 8.948 9.785 8.644 9.888V10.642C8.98585 10.5477 9.30474 10.3843 9.581 10.162V12.368H10.485V12.367ZM13.2 10.888C13.2 10.3357 13.6477 9.888 14.2 9.888H23.2C23.7523 9.888 24.2 10.3357 24.2 10.888C24.2 11.4403 23.7523 11.888 23.2 11.888H14.2C13.6477 11.888 13.2 11.4403 13.2 10.888ZM13.2 16C13.2 15.4477 13.6477 15 14.2 15H23.2C23.7523 15 24.2 15.4477 24.2 16C24.2 16.5523 23.7523 17 23.2 17H14.2C13.6477 17 13.2 16.5523 13.2 16ZM13.2 21.316C13.2 20.7637 13.6477 20.316 14.2 20.316H23.2C23.7523 20.316 24.2 20.7637 24.2 21.316C24.2 21.8683 23.7523 22.316 23.2 22.316H14.2C13.6477 22.316 13.2 21.8683 13.2 21.316Z"
            fill="#6D7885" />
    </g>
    <defs>
        <clipPath id="clip0_49_5984">
            <rect width="16" height="14" fill="white" transform="translate(8.2 9)" />
        </clipPath>
    </defs>
</svg>
