<svg width="20" height="20" viewBox="0 0 20 20" fill="none" xmlns="http://www.w3.org/2000/svg">
<path d="M4.3232 15.3551C4.36784 15.3551 4.41248 15.3506 4.45713 15.3439L8.21159 14.6854C8.25623 14.6765 8.29864 14.6564 8.32989 14.6229L17.7919 5.16085C17.8126 5.1402 17.8291 5.11567 17.8403 5.08867C17.8515 5.06167 17.8572 5.03272 17.8572 5.00349C17.8572 4.97425 17.8515 4.94531 17.8403 4.9183C17.8291 4.8913 17.8126 4.86677 17.7919 4.84612L14.0821 1.13407C14.0397 1.09166 13.9839 1.06934 13.9236 1.06934C13.8634 1.06934 13.8076 1.09166 13.7652 1.13407L4.30311 10.5961C4.26963 10.6296 4.24954 10.6698 4.24061 10.7144L3.58213 14.4689C3.56041 14.5885 3.56817 14.7115 3.60473 14.8274C3.64129 14.9433 3.70555 15.0486 3.79195 15.1341C3.93927 15.2769 4.12454 15.3551 4.3232 15.3551ZM5.82766 11.4622L13.9236 3.36844L15.5598 5.0046L7.46382 13.0984L5.47945 13.4488L5.82766 11.4622ZM18.2138 17.2301H1.78525C1.39016 17.2301 1.07096 17.5492 1.07096 17.9443V18.7479C1.07096 18.8461 1.15132 18.9265 1.24954 18.9265H18.7495C18.8478 18.9265 18.9281 18.8461 18.9281 18.7479V17.9443C18.9281 17.5492 18.6089 17.2301 18.2138 17.2301Z" fill="#FF8966"/>
</svg>
