<svg width="32" height="32" viewBox="0 0 32 32" fill="none" xmlns="http://www.w3.org/2000/svg">
    <rect width="32" height="32" rx="16" fill="#FF8966" />
    <path
        d="M23.7037 21.9259C23.7037 22.9078 22.9078 23.7037 21.9259 23.7037L10.0741 23.7037C9.09223 23.7037 8.2963 22.9078 8.2963 21.9259V14.4039C8.2963 13.6831 8.62426 13.0015 9.18747 12.5517L14.5209 8.29237C15.386 7.6015 16.6141 7.60148 17.4792 8.29232L22.8125 12.5512C23.3757 13.001 23.7037 13.6827 23.7037 14.4035V21.9259ZM12.4444 15.9998C11.9535 15.9998 11.5466 16.4017 11.6441 16.8828C11.8164 17.7326 12.2351 18.5203 12.8573 19.1425C13.6908 19.976 14.8213 20.4443 16 20.4443C17.1787 20.4443 18.3092 19.976 19.1427 19.1425C19.7649 18.5203 20.1836 17.7326 20.3559 16.8828C20.4534 16.4017 20.0465 15.9998 19.5556 15.9998C19.0646 15.9998 18.6805 16.4085 18.5199 16.8724C18.3891 17.2502 18.1737 17.5974 17.8856 17.8855C17.3855 18.3855 16.7072 18.6665 16 18.6665C15.2928 18.6665 14.6145 18.3855 14.1144 17.8855C13.8263 17.5974 13.6109 17.2502 13.4801 16.8724C13.3195 16.4085 12.9354 15.9998 12.4444 15.9998Z"
        fill="white" />
</svg>
