<svg width="33" height="33" viewBox="0 0 33 33" fill="none" xmlns="http://www.w3.org/2000/svg">
    <path
        d="M0.20195 16.0035C0.20195 24.838 7.36752 32.0017 16.1998 32.0017C25.0358 32.0017 32.1976 24.838 32.1976 16.0035C32.1976 7.16533 25.0357 0.00170898 16.1998 0.00170898C9.54367 0.00170898 3.83022 4.07128 1.42472 9.86266C0.635014 11.7519 0.20195 13.8267 0.20195 16.0035Z"
        fill="#FF8966" />
    <path
        d="M13.3874 16.9374H12.9187C11.8831 16.9374 11.0437 17.7782 11.0437 18.8159V20.6838C11.0437 21.7212 11.8831 22.5623 12.9187 22.5623H13.3874C13.9051 22.5623 14.3249 22.1416 14.3249 21.6231V17.8766C14.3249 17.3578 13.9051 16.9374 13.3874 16.9374ZM19.4811 16.9374H19.0124C18.4947 16.9374 18.0749 17.3578 18.0749 17.8766V21.6231C18.0749 22.1416 18.4947 22.5623 19.0124 22.5623H19.4811C20.5168 22.5623 21.3561 21.7212 21.3561 20.6838V18.8159C21.3561 17.7785 20.5168 16.9374 19.4811 16.9374ZM16.1999 9.43747C12.0079 9.43747 8.83387 12.9276 8.69998 16.9374V20.2186C8.69998 20.4776 8.90975 20.6874 9.16873 20.6874H9.63747C9.89645 20.6874 10.1062 20.4776 10.1062 20.2186V16.9374C10.1062 13.578 12.8405 10.8496 16.1999 10.849C19.5593 10.8496 22.2936 13.578 22.2936 16.9374V20.2186C22.2936 20.4776 22.5034 20.6874 22.7623 20.6874H23.2311C23.4901 20.6874 23.6998 20.4776 23.6998 20.2186V16.9374C23.566 12.9276 20.392 9.43747 16.1999 9.43747Z"
        fill="white" />
</svg>
