<svg width="56" height="56" viewBox="0 0 56 56" fill="none" xmlns="http://www.w3.org/2000/svg">
    <path opacity="0.2"
        d="M0.49218 28.0021C0.49218 43.1913 12.8136 55.5078 28.001 55.5078C43.1947 55.5078 55.5097 43.1912 55.5097 28.0021C55.5097 12.8067 43.1946 0.49028 28.0009 0.49028C16.5556 0.49028 6.7311 7.48708 2.59477 17.4442C1.23685 20.6923 0.49218 24.2596 0.49218 28.0021Z"
        fill="white" />
    <path
        d="M10.8069 28.0036C10.8069 37.498 18.5077 45.1968 27.9999 45.1968C37.4959 45.1968 45.1928 37.498 45.1928 28.0035C45.1928 18.5052 37.4959 10.8065 27.9998 10.8065C20.8465 10.8065 14.7062 15.18 12.121 21.404C11.2723 23.4343 10.8069 25.6642 10.8069 28.0036Z"
        fill="#FD744C" />
    <path
        d="M25.0833 28.9722H24.5972C23.5232 28.9722 22.6528 29.8442 22.6528 30.9203V32.8575C22.6528 33.9333 23.5232 34.8056 24.5972 34.8056H25.0833C25.6202 34.8056 26.0556 34.3693 26.0556 33.8315V29.9463C26.0556 29.4082 25.6202 28.9722 25.0833 28.9722ZM31.4028 28.9722H30.9167C30.3798 28.9722 29.9444 29.4082 29.9444 29.9463V33.8315C29.9444 34.3693 30.3798 34.8056 30.9167 34.8056H31.4028C32.4768 34.8056 33.3472 33.9333 33.3472 32.8575V30.9203C33.3472 29.8445 32.4768 28.9722 31.4028 28.9722ZM28 21.1944C23.6526 21.1944 20.3611 24.8138 20.2222 28.9722V32.375C20.2222 32.6436 20.4398 32.8611 20.7083 32.8611H21.1944C21.463 32.8611 21.6806 32.6436 21.6806 32.375V28.9722C21.6806 25.4883 24.5161 22.6589 28 22.6582C31.4839 22.6589 34.3194 25.4883 34.3194 28.9722V32.375C34.3194 32.6436 34.537 32.8611 34.8056 32.8611H35.2917C35.5602 32.8611 35.7778 32.6436 35.7778 32.375V28.9722C35.6389 24.8138 32.3474 21.1944 28 21.1944Z"
        fill="white" />
</svg>
