<svg width="24" height="24" viewBox="0 0 24 24" fill="none" xmlns="http://www.w3.org/2000/svg">
    <path
        d="M10.8 18C10.8 18.6627 11.3373 19.2 12 19.2C12.6627 19.2 13.2 18.6627 13.2 18H10.8ZM18 8.6087L18.8215 9.48343C19.063 9.25661 19.2 8.94003 19.2 8.6087C19.2 8.27737 19.063 7.96078 18.8215 7.73396L18 8.6087ZM17.3215 6.32527C16.8384 5.87157 16.079 5.89541 15.6253 6.37851C15.1716 6.86161 15.1954 7.62104 15.6785 8.07473L17.3215 6.32527ZM15.6785 9.14266C15.1954 9.59635 15.1716 10.3558 15.6253 10.8389C16.079 11.322 16.8384 11.3458 17.3215 10.8921L15.6785 9.14266ZM13.2 18V12.3652H10.8V18H13.2ZM16 9.8087H18V7.4087H16V9.8087ZM18.8215 7.73396L17.3215 6.32527L15.6785 8.07473L17.1785 9.48343L18.8215 7.73396ZM17.1785 7.73396L15.6785 9.14266L17.3215 10.8921L18.8215 9.48343L17.1785 7.73396ZM13.2 12.3652C13.2 11.0232 14.3815 9.8087 16 9.8087V7.4087C13.2002 7.4087 10.8 9.55793 10.8 12.3652H13.2Z"
        fill="white" />
    <path
        d="M10.8 18C10.8 18.6627 11.3373 19.2 12 19.2C12.6627 19.2 13.2 18.6627 13.2 18H10.8ZM6 8.6087L5.17851 7.73396C4.93699 7.96078 4.8 8.27737 4.8 8.6087C4.8 8.94003 4.93699 9.25661 5.17851 9.48343L6 8.6087ZM8.32149 8.07473C8.80459 7.62104 8.82843 6.86161 8.37473 6.37851C7.92104 5.89541 7.16161 5.87157 6.67851 6.32527L8.32149 8.07473ZM6.67851 10.8921C7.16161 11.3458 7.92104 11.322 8.37473 10.8389C8.82843 10.3558 8.80459 9.59635 8.32149 9.14266L6.67851 10.8921ZM13.2 18V12.3652H10.8V18H13.2ZM8 7.4087H6V9.8087H8V7.4087ZM6.82149 9.48343L8.32149 8.07473L6.67851 6.32527L5.17851 7.73396L6.82149 9.48343ZM5.17851 9.48343L6.67851 10.8921L8.32149 9.14266L6.82149 7.73396L5.17851 9.48343ZM13.2 12.3652C13.2 9.55793 10.7998 7.4087 8 7.4087V9.8087C9.6185 9.8087 10.8 11.0232 10.8 12.3652H13.2Z"
        fill="white" />
    <path
        d="M22.8 12C22.8 17.0912 22.8 19.6368 21.2184 21.2184C19.6368 22.8 17.0912 22.8 12 22.8C6.90883 22.8 4.36325 22.8 2.78162 21.2184C1.2 19.6368 1.2 17.0912 1.2 12C1.2 6.90883 1.2 4.36325 2.78162 2.78162C4.36325 1.2 6.90883 1.2 12 1.2C17.0912 1.2 19.6368 1.2 21.2184 2.78162C22.27 3.83326 22.6224 5.31108 22.7405 7.68"
        stroke="white" stroke-width="2.4" stroke-linecap="round" />
</svg>
