<svg width="33" height="33" viewBox="0 0 33 33" fill="none" xmlns="http://www.w3.org/2000/svg">
    <rect x="0.199997" width="32.8" height="32.8" rx="16" fill="white" />
    <path fill-rule="evenodd" clip-rule="evenodd"
        d="M16.6004 13.275C14.8745 13.275 13.4754 14.6741 13.4754 16.4C13.4754 18.1259 14.8745 19.525 16.6004 19.525C18.3263 19.525 19.7254 18.1259 19.7254 16.4C19.7254 14.6741 18.3263 13.275 16.6004 13.275ZM14.7254 16.4C14.7254 15.3644 15.5649 14.525 16.6004 14.525C17.6359 14.525 18.4754 15.3644 18.4754 16.4C18.4754 17.4355 17.6359 18.275 16.6004 18.275C15.5649 18.275 14.7254 17.4355 14.7254 16.4Z"
        fill="#6D7885" />
    <path fill-rule="evenodd" clip-rule="evenodd"
        d="M16.5794 7.44165C16.209 7.44164 15.8998 7.44164 15.6459 7.45896C15.3817 7.47699 15.1321 7.51586 14.8901 7.61609C14.3286 7.84868 13.8824 8.29481 13.6498 8.85633C13.5288 9.14866 13.496 9.45675 13.4834 9.79162C13.4734 10.0608 13.3375 10.2854 13.137 10.4012C12.9365 10.5169 12.6741 10.5223 12.436 10.3964C12.1397 10.2398 11.8565 10.1141 11.5428 10.0728C10.9402 9.99351 10.3308 10.1568 9.84857 10.5268C9.64076 10.6863 9.4823 10.883 9.33456 11.1028C9.19264 11.314 9.03804 11.5818 8.85286 11.9025L8.83181 11.939C8.64661 12.2597 8.49201 12.5275 8.38009 12.756C8.26358 12.9939 8.17244 13.2295 8.13825 13.4892C8.05892 14.0917 8.22221 14.7012 8.59221 15.1834C8.78481 15.4344 9.03518 15.6168 9.31888 15.795C9.54703 15.9384 9.67364 16.1684 9.67362 16.4C9.67361 16.6315 9.54701 16.8615 9.31888 17.0048C9.03515 17.1831 8.78474 17.3655 8.59213 17.6166C8.22213 18.0987 8.05884 18.7082 8.13817 19.3108C8.17236 19.5704 8.2635 19.806 8.38001 20.0439C8.49193 20.2724 8.64653 20.5402 8.83172 20.8609L8.85277 20.8974C9.03796 21.2181 9.19256 21.4859 9.33448 21.6971C9.48222 21.9169 9.64068 22.1137 9.84848 22.2731C10.3307 22.6431 10.9401 22.8064 11.5427 22.7271C11.8564 22.6858 12.1396 22.5601 12.4358 22.4036C12.674 22.2777 12.9365 22.283 13.137 22.3988C13.3375 22.5145 13.4734 22.7392 13.4834 23.0084C13.496 23.3433 13.5288 23.6513 13.6498 23.9436C13.8824 24.5052 14.3286 24.9513 14.8901 25.1839C15.1321 25.2841 15.3817 25.323 15.6459 25.341C15.8998 25.3583 16.209 25.3583 16.5793 25.3583H16.6214C16.9918 25.3583 17.301 25.3583 17.5549 25.341C17.8191 25.323 18.0687 25.2841 18.3107 25.1839C18.8722 24.9513 19.3184 24.5052 19.551 23.9436C19.672 23.6513 19.7048 23.3432 19.7174 23.0083C19.7274 22.7391 19.8633 22.5145 20.0638 22.3988C20.2643 22.283 20.5267 22.2776 20.7649 22.4035C21.0612 22.5601 21.3443 22.6857 21.658 22.727C22.2606 22.8063 22.87 22.643 23.3522 22.273C23.56 22.1136 23.7185 21.9169 23.8662 21.697C24.0082 21.4859 24.1627 21.2181 24.3479 20.8974L24.369 20.8609C24.5542 20.5402 24.7088 20.2723 24.8207 20.0438C24.9372 19.806 25.0284 19.5704 25.0625 19.3107C25.1419 18.7081 24.9786 18.0987 24.6086 17.6165C24.416 17.3655 24.1656 17.183 23.8819 17.0048C23.6537 16.8614 23.5272 16.6315 23.5272 16.3999C23.5272 16.1684 23.6538 15.9385 23.8819 15.7952C24.1656 15.6169 24.416 15.4345 24.6087 15.1834C24.9787 14.7012 25.142 14.0918 25.0626 13.4892C25.0284 13.2295 24.9373 12.9939 24.8208 12.7561C24.7089 12.5276 24.5543 12.2598 24.3691 11.9391L24.348 11.9026C24.1629 11.5819 24.0082 11.3141 23.8663 11.1029C23.7186 10.883 23.5601 10.6863 23.3523 10.5269C22.8701 10.1569 22.2607 9.99357 21.6581 10.0729C21.3444 10.1142 21.0612 10.2398 20.765 10.3964C20.5268 10.5223 20.2643 10.517 20.0638 10.4012C19.8633 10.2854 19.7274 10.0608 19.7174 9.79157C19.7048 9.45672 19.672 9.14865 19.551 8.85633C19.3184 8.29481 18.8722 7.84868 18.3107 7.61609C18.0687 7.51586 17.8191 7.47699 17.5549 7.45896C17.301 7.44164 16.9918 7.44164 16.6214 7.44165H16.5794ZM15.3684 8.77094C15.4327 8.74431 15.5304 8.71975 15.731 8.70606C15.9372 8.69199 16.2036 8.69165 16.6004 8.69165C16.9972 8.69165 17.2636 8.69199 17.4698 8.70606C17.6704 8.71975 17.7681 8.74431 17.8324 8.77094C18.0876 8.87667 18.2904 9.07945 18.3961 9.33469C18.4295 9.4152 18.4571 9.54071 18.4682 9.83829C18.4929 10.4986 18.8337 11.1344 19.4388 11.4837C20.0439 11.833 20.7649 11.8103 21.3491 11.5015C21.6124 11.3624 21.7349 11.3236 21.8213 11.3122C22.0952 11.2761 22.3722 11.3504 22.5914 11.5186C22.6466 11.5609 22.7167 11.6332 22.8288 11.8001C22.9441 11.9717 23.0776 12.2021 23.276 12.5458C23.4744 12.8895 23.6073 13.1203 23.6982 13.3059C23.7867 13.4865 23.8142 13.5834 23.8233 13.6524C23.8594 13.9263 23.7852 14.2033 23.617 14.4225C23.5639 14.4916 23.469 14.5783 23.2168 14.7368C22.6574 15.0883 22.2772 15.7013 22.2772 16.3999C22.2771 17.0986 22.6573 17.7116 23.2168 18.0632C23.469 18.2216 23.5638 18.3083 23.6169 18.3774C23.7851 18.5966 23.8593 18.8736 23.8232 19.1475C23.8142 19.2165 23.7866 19.3134 23.6981 19.494C23.6072 19.6796 23.4743 19.9104 23.2759 20.2541C23.0775 20.5978 22.9441 20.8282 22.8288 20.9998C22.7166 21.1667 22.6465 21.239 22.5913 21.2814C22.3721 21.4495 22.0951 21.5238 21.8212 21.4877C21.7348 21.4763 21.6123 21.4375 21.349 21.2984C20.7648 20.9896 20.0437 20.9669 19.4387 21.3163C18.8337 21.6656 18.4929 22.3013 18.4682 22.9616C18.4571 23.2592 18.4295 23.3848 18.3961 23.4653C18.2904 23.7205 18.0876 23.9233 17.8324 24.029C17.7681 24.0557 17.6704 24.0802 17.4698 24.0939C17.2636 24.108 16.9972 24.1083 16.6004 24.1083C16.2036 24.1083 15.9372 24.108 15.731 24.0939C15.5304 24.0802 15.4327 24.0557 15.3684 24.029C15.1132 23.9233 14.9104 23.7205 14.8047 23.4653C14.7713 23.3848 14.7437 23.2593 14.7326 22.9617C14.7079 22.3014 14.367 21.6656 13.762 21.3162C13.1569 20.9669 12.4359 20.9897 11.8517 21.2984C11.5884 21.4376 11.4659 21.4764 11.3795 21.4878C11.1056 21.5238 10.8286 21.4496 10.6094 21.2814C10.5542 21.239 10.4841 21.1667 10.372 20.9999C10.2567 20.8283 10.1232 20.5978 9.92479 20.2542C9.72637 19.9105 9.5935 19.6797 9.50257 19.494C9.41412 19.3135 9.38656 19.2166 9.37747 19.1476C9.34141 18.8737 9.41564 18.5967 9.58382 18.3775C9.63687 18.3084 9.73175 18.2217 9.98391 18.0632C10.5434 17.7117 10.9236 17.0987 10.9236 16.4C10.9237 15.7013 10.5434 15.0882 9.98391 14.7366C9.73181 14.5782 9.63695 14.4915 9.5839 14.4224C9.41572 14.2032 9.3415 13.9262 9.37756 13.6523C9.38664 13.5833 9.41421 13.4864 9.50265 13.3059C9.59358 13.1202 9.72645 12.8894 9.92487 12.5458C10.1233 12.2021 10.2567 11.9716 10.372 11.8001C10.4842 11.6332 10.5543 11.5609 10.6095 11.5185C10.8287 11.3503 11.1057 11.2761 11.3796 11.3122C11.466 11.3235 11.5885 11.3623 11.8518 11.5015C12.436 11.8103 13.157 11.833 13.762 11.4837C14.3671 11.1344 14.7079 10.4986 14.7326 9.83833C14.7437 9.54072 14.7713 9.41521 14.8047 9.33469C14.9104 9.07945 15.1132 8.87667 15.3684 8.77094Z"
        fill="#6D7885" />
    <path
        d="M20.7649 22.4035C20.5267 22.2776 20.2643 22.283 20.0638 22.3988C19.8633 22.5145 19.7274 22.7391 19.7174 23.0083C19.7048 23.3432 19.672 23.6513 19.551 23.9436C19.3184 24.5052 18.8722 24.9513 18.3107 25.1839C18.0687 25.2841 17.8191 25.323 17.5549 25.341C17.301 25.3583 16.9918 25.3583 16.6214 25.3583H16.5793C16.209 25.3583 15.8998 25.3583 15.6459 25.341C15.3817 25.323 15.1321 25.2841 14.8901 25.1839C14.3286 24.9513 13.8824 24.5052 13.6498 23.9436C13.5288 23.6513 13.496 23.3433 13.4834 23.0084C13.4734 22.7392 13.3375 22.5145 13.137 22.3988C12.9365 22.283 12.674 22.2777 12.4358 22.4036C12.1396 22.5601 11.8564 22.6858 11.5427 22.7271C10.9401 22.8064 10.3307 22.6431 9.84848 22.2731C9.64068 22.1137 9.48222 21.9169 9.33448 21.6971C9.19256 21.4859 9.03796 21.2181 8.85277 20.8974L8.83172 20.8609C8.64653 20.5402 8.49193 20.2724 8.38001 20.0439C8.2635 19.806 8.17236 19.5704 8.13817 19.3108C8.05884 18.7082 8.22213 18.0987 8.59213 17.6166C8.78474 17.3655 9.03515 17.1831 9.31888 17.0048C9.54701 16.8615 9.67361 16.6315 9.67362 16.4C9.67364 16.1684 9.54703 15.9384 9.31888 15.795C9.03518 15.6168 8.78481 15.4344 8.59221 15.1834C8.22221 14.7012 8.05892 14.0917 8.13825 13.4892C8.17244 13.2295 8.26358 12.9939 8.38009 12.756C8.49201 12.5275 8.64661 12.2597 8.83181 11.939L8.85286 11.9025C9.03804 11.5818 9.19264 11.314 9.33456 11.1028C9.4823 10.883 9.64076 10.6863 9.84857 10.5268C10.3308 10.1568 10.9402 9.99351 11.5428 10.0728C11.8565 10.1141 12.1397 10.2398 12.436 10.3964C12.6741 10.5223 12.9365 10.5169 13.137 10.4012C13.3375 10.2854 13.4734 10.0608 13.4834 9.79162C13.496 9.45675 13.5288 9.14866 13.6498 8.85633C13.8824 8.29481 14.3286 7.84868 14.8901 7.61609C15.1321 7.51586 15.3817 7.47699 15.6459 7.45896C15.8998 7.44164 16.209 7.44164 16.5794 7.44165H16.6214C16.9918 7.44164 17.301 7.44164 17.5549 7.45896C17.8191 7.47699 18.0687 7.51586 18.3107 7.61609M20.7649 22.4035L21.057 21.8509M20.7649 22.4035C21.0612 22.5601 21.3443 22.6857 21.658 22.727C22.2606 22.8063 22.87 22.643 23.3522 22.273C23.56 22.1136 23.7185 21.9169 23.8662 21.697C24.0081 21.4859 24.1627 21.2181 24.3479 20.8974L24.369 20.8609C24.5542 20.5402 24.7088 20.2723 24.8207 20.0438C24.9372 19.806 25.0284 19.5704 25.0625 19.3107C25.1419 18.7081 24.9786 18.0987 24.6086 17.6165M24.6086 17.6165L24.1127 17.997M24.6086 17.6165C24.416 17.3655 24.1656 17.183 23.8819 17.0048C23.6537 16.8614 23.5272 16.6315 23.5272 16.3999C23.5272 16.1684 23.6538 15.9385 23.8819 15.7952C24.1656 15.6169 24.416 15.4345 24.6087 15.1834C24.9787 14.7012 25.142 14.0918 25.0626 13.4892C25.0284 13.2295 24.9373 12.9939 24.8208 12.7561C24.7089 12.5276 24.5543 12.2598 24.3691 11.9391L24.348 11.9026C24.1629 11.5819 24.0082 11.3141 23.8663 11.1029C23.7186 10.883 23.5601 10.6863 23.3523 10.5269C22.8701 10.1569 22.2607 9.99357 21.6581 10.0729C21.3444 10.1142 21.0612 10.2398 20.765 10.3964C20.5268 10.5223 20.2643 10.517 20.0638 10.4012C19.8633 10.2854 19.7274 10.0608 19.7174 9.79157C19.7048 9.45672 19.672 9.14865 19.551 8.85633C19.3184 8.29481 18.8722 7.84868 18.3107 7.61609M18.3107 7.61609L18.0715 8.19352M9.98391 14.7366C10.5434 15.0882 10.9237 15.7013 10.9236 16.4C10.9236 17.0987 10.5434 17.7117 9.98391 18.0632C9.73175 18.2217 9.63687 18.3084 9.58382 18.3775C9.41564 18.5967 9.34141 18.8737 9.37747 19.1476C9.38656 19.2166 9.41412 19.3135 9.50257 19.494C9.5935 19.6797 9.72637 19.9105 9.92479 20.2542C10.1232 20.5978 10.2567 20.8283 10.372 20.9999C10.4841 21.1667 10.5542 21.239 10.6094 21.2814C10.8286 21.4496 11.1056 21.5238 11.3795 21.4878C11.4659 21.4764 11.5884 21.4376 11.8517 21.2984C12.4359 20.9897 13.1569 20.9669 13.762 21.3162C14.367 21.6656 14.7079 22.3014 14.7326 22.9617C14.7437 23.2593 14.7713 23.3848 14.8047 23.4653C14.9104 23.7205 15.1132 23.9233 15.3684 24.029C15.4327 24.0557 15.5304 24.0802 15.731 24.0939C15.9372 24.108 16.2036 24.1083 16.6004 24.1083C16.9972 24.1083 17.2636 24.108 17.4698 24.0939C17.6704 24.0802 17.7681 24.0557 17.8324 24.029C18.0876 23.9233 18.2904 23.7205 18.3961 23.4653C18.4295 23.3848 18.4571 23.2592 18.4682 22.9616C18.4929 22.3013 18.8337 21.6656 19.4387 21.3163C20.0437 20.9669 20.7648 20.9896 21.349 21.2984C21.6123 21.4375 21.7348 21.4763 21.8212 21.4877C22.0951 21.5238 22.3721 21.4495 22.5913 21.2814C22.6465 21.239 22.7166 21.1667 22.8288 20.9998C22.9441 20.8282 23.0775 20.5978 23.2759 20.2541C23.4743 19.9104 23.6072 19.6796 23.6981 19.494C23.7866 19.3134 23.8142 19.2165 23.8232 19.1475C23.8593 18.8736 23.7851 18.5966 23.6169 18.3774C23.5638 18.3083 23.469 18.2216 23.2168 18.0632C22.6573 17.7116 22.2771 17.0986 22.2772 16.3999C22.2772 15.7013 22.6574 15.0883 23.2168 14.7368C23.469 14.5783 23.5639 14.4916 23.617 14.4225C23.7852 14.2033 23.8594 13.9263 23.8233 13.6524C23.8142 13.5834 23.7867 13.4865 23.6982 13.3059C23.6073 13.1203 23.4744 12.8895 23.276 12.5458C23.0776 12.2021 22.9441 11.9717 22.8288 11.8001C22.7167 11.6332 22.6466 11.5609 22.5914 11.5186C22.3722 11.3504 22.0952 11.2761 21.8213 11.3122C21.7349 11.3236 21.6124 11.3624 21.3491 11.5015C20.7649 11.8103 20.0439 11.833 19.4388 11.4837C18.8337 11.1344 18.4929 10.4986 18.4682 9.83829C18.4571 9.54071 18.4295 9.4152 18.3961 9.33469C18.2904 9.07945 18.0876 8.87667 17.8324 8.77094C17.7681 8.74431 17.6704 8.71975 17.4698 8.70606C17.2636 8.69199 16.9972 8.69165 16.6004 8.69165C16.2036 8.69165 15.9372 8.69199 15.731 8.70606C15.5304 8.71975 15.4327 8.74431 15.3684 8.77094C15.1132 8.87667 14.9104 9.07945 14.8047 9.33469M9.98391 14.7366L9.6514 15.2658M9.98391 14.7366C9.73181 14.5782 9.63695 14.4915 9.5839 14.4224C9.41572 14.2032 9.3415 13.9262 9.37756 13.6523C9.38664 13.5833 9.41421 13.4864 9.50265 13.3059C9.59358 13.1202 9.72645 12.8894 9.92487 12.5458C10.1233 12.2021 10.2567 11.9716 10.372 11.8001C10.4842 11.6332 10.5543 11.5609 10.6095 11.5185C10.8287 11.3503 11.1057 11.2761 11.3796 11.3122C11.466 11.3235 11.5885 11.3623 11.8518 11.5015C12.436 11.8103 13.157 11.833 13.762 11.4837C14.3671 11.1344 14.7079 10.4986 14.7326 9.83833C14.7437 9.54072 14.7713 9.41521 14.8047 9.33469M14.8047 9.33469L14.2273 9.09551M16.6004 14.525C15.5649 14.525 14.7254 15.3644 14.7254 16.4C14.7254 17.4355 15.5649 18.275 16.6004 18.275C17.6359 18.275 18.4754 17.4355 18.4754 16.4C18.4754 15.3644 17.6359 14.525 16.6004 14.525ZM13.4754 16.4C13.4754 14.6741 14.8745 13.275 16.6004 13.275C18.3263 13.275 19.7254 14.6741 19.7254 16.4C19.7254 18.1259 18.3263 19.525 16.6004 19.525C14.8745 19.525 13.4754 18.1259 13.4754 16.4Z"
        stroke="#6D7885" stroke-width="0.5" />
</svg>
